<svg width="152" height="50" viewBox="0 0 152 50" fill="none" xmlns="http://www.w3.org/2000/svg">
<path d="M73.6172 21.8201C73.8172 21.8201 74.0305 21.8334 74.2572 21.8601C74.4972 21.8734 74.7039 21.9001 74.8772 21.9401L74.6572 23.5601C74.4839 23.5201 74.2905 23.4867 74.0772 23.4601C73.8772 23.4334 73.6839 23.4201 73.4972 23.4201C73.0839 23.4201 72.6905 23.5067 72.3172 23.6801C71.9439 23.8534 71.6105 24.1001 71.3172 24.4201C71.0239 24.7267 70.7905 25.1001 70.6172 25.5401C70.4572 25.9801 70.3772 26.4734 70.3772 27.0201V32.7401H68.6172V22.0201H70.0572L70.2572 23.9801H70.3372C70.5639 23.5801 70.8372 23.2201 71.1572 22.9001C71.4772 22.5667 71.8439 22.3067 72.2572 22.1201C72.6705 21.9201 73.1239 21.8201 73.6172 21.8201Z" fill="#606990"/>
<path d="M85.8388 22.02V32.74H84.3988L84.1388 31.32H84.0588C83.8321 31.6934 83.5388 32 83.1788 32.24C82.8188 32.48 82.4255 32.6534 81.9988 32.76C81.5721 32.88 81.1255 32.94 80.6588 32.94C79.8055 32.94 79.0855 32.8067 78.4988 32.54C77.9255 32.26 77.4921 31.8334 77.1988 31.26C76.9055 30.6867 76.7588 29.9467 76.7588 29.04V22.02H78.5388V28.92C78.5388 29.7734 78.7321 30.4134 79.1188 30.84C79.5055 31.2667 80.1055 31.48 80.9188 31.48C81.7188 31.48 82.3455 31.3334 82.7988 31.04C83.2655 30.7334 83.5921 30.2934 83.7788 29.72C83.9788 29.1334 84.0788 28.4267 84.0788 27.6V22.02H85.8388Z" fill="#6B9587"/>
<path d="M93.3821 21.8201C94.3021 21.8201 95.0888 22.0201 95.7421 22.4201C96.4088 22.8201 96.9154 23.3867 97.2621 24.1201C97.6221 24.8401 97.8021 25.6867 97.8021 26.6601V27.7201H90.4621C90.4888 28.9334 90.7954 29.8601 91.3821 30.5001C91.9821 31.1267 92.8154 31.4401 93.8821 31.4401C94.5621 31.4401 95.1621 31.3801 95.6821 31.2601C96.2154 31.1267 96.7621 30.9401 97.3221 30.7001V32.2401C96.7754 32.4801 96.2354 32.6534 95.7021 32.7601C95.1688 32.8801 94.5354 32.9401 93.8021 32.9401C92.7888 32.9401 91.8888 32.7334 91.1021 32.3201C90.3288 31.9067 89.7221 31.2934 89.2821 30.4801C88.8554 29.6534 88.6421 28.6467 88.6421 27.4601C88.6421 26.2867 88.8354 25.2801 89.2221 24.4401C89.6221 23.6001 90.1754 22.9534 90.8821 22.5001C91.6021 22.0467 92.4354 21.8201 93.3821 21.8201ZM93.3621 23.2601C92.5221 23.2601 91.8554 23.5334 91.3621 24.0801C90.8821 24.6134 90.5954 25.3601 90.5021 26.3201H95.9621C95.9621 25.7067 95.8688 25.1734 95.6821 24.7201C95.4954 24.2667 95.2088 23.9134 94.8221 23.6601C94.4488 23.3934 93.9621 23.2601 93.3621 23.2601Z" fill="#84B572"/>
<path d="M110.831 18.46L105.731 32.74H103.931L98.8313 18.46H100.711L103.931 27.62C104.078 28.0066 104.205 28.38 104.311 28.74C104.418 29.1 104.511 29.4466 104.591 29.78C104.685 30.1 104.765 30.42 104.831 30.74C104.898 30.42 104.971 30.0933 105.051 29.76C105.145 29.4266 105.245 29.08 105.351 28.72C105.471 28.36 105.598 27.98 105.731 27.58L108.931 18.46H110.831Z" fill="#B8BF45"/>
<path d="M114.284 22.02V32.74H112.524V22.02H114.284ZM113.424 18C113.69 18 113.924 18.0933 114.124 18.28C114.337 18.4533 114.444 18.7333 114.444 19.12C114.444 19.4933 114.337 19.7733 114.124 19.96C113.924 20.1467 113.69 20.24 113.424 20.24C113.13 20.24 112.884 20.1467 112.684 19.96C112.484 19.7733 112.384 19.4933 112.384 19.12C112.384 18.7333 112.484 18.4533 112.684 18.28C112.884 18.0933 113.13 18 113.424 18Z" fill="#ECC818"/>
<path d="M121.82 21.8201C122.74 21.8201 123.526 22.0201 124.18 22.4201C124.846 22.8201 125.353 23.3867 125.7 24.1201C126.06 24.8401 126.24 25.6867 126.24 26.6601V27.7201H118.9C118.926 28.9334 119.233 29.8601 119.82 30.5001C120.42 31.1267 121.253 31.4401 122.32 31.4401C123 31.4401 123.6 31.3801 124.12 31.2601C124.653 31.1267 125.2 30.9401 125.76 30.7001V32.2401C125.213 32.4801 124.673 32.6534 124.14 32.7601C123.606 32.8801 122.973 32.9401 122.24 32.9401C121.226 32.9401 120.326 32.7334 119.54 32.3201C118.766 31.9067 118.16 31.2934 117.72 30.4801C117.293 29.6534 117.08 28.6467 117.08 27.4601C117.08 26.2867 117.273 25.2801 117.66 24.4401C118.06 23.6001 118.613 22.9534 119.32 22.5001C120.04 22.0467 120.873 21.8201 121.82 21.8201ZM121.8 23.2601C120.96 23.2601 120.293 23.5334 119.8 24.0801C119.32 24.6134 119.033 25.3601 118.94 26.3201H124.4C124.4 25.7067 124.306 25.1734 124.12 24.7201C123.933 24.2667 123.646 23.9134 123.26 23.6601C122.886 23.3934 122.4 23.2601 121.8 23.2601Z" fill="#FBB90F"/>
<path d="M135.498 26.68C135.418 26.4 135.338 26.1267 135.258 25.86C135.178 25.58 135.105 25.32 135.038 25.08C134.985 24.8267 134.931 24.5933 134.878 24.38C134.825 24.1667 134.785 23.9867 134.758 23.84H134.678C134.651 23.9867 134.611 24.1667 134.558 24.38C134.518 24.5933 134.465 24.8267 134.398 25.08C134.345 25.3333 134.278 25.6 134.198 25.88C134.131 26.1467 134.051 26.42 133.958 26.7L132.038 32.72H130.038L127.098 22H128.918L130.398 27.72C130.505 28.1067 130.605 28.5 130.698 28.9C130.791 29.2867 130.871 29.66 130.938 30.02C131.018 30.3667 131.071 30.6667 131.098 30.92H131.178C131.218 30.76 131.265 30.56 131.318 30.32C131.371 30.08 131.425 29.8267 131.478 29.56C131.545 29.2933 131.611 29.0267 131.678 28.76C131.758 28.4933 131.831 28.2533 131.898 28.04L133.798 22H135.718L137.558 28.04C137.651 28.3467 137.745 28.6733 137.838 29.02C137.945 29.3667 138.038 29.7067 138.118 30.04C138.198 30.36 138.251 30.6467 138.278 30.9H138.358C138.385 30.6733 138.431 30.3933 138.498 30.06C138.578 29.7133 138.665 29.34 138.758 28.94C138.865 28.5267 138.971 28.12 139.078 27.72L140.578 22H142.378L139.398 32.72H137.338L135.498 26.68Z" fill="#F99F17"/>
<path d="M151.281 29.7801C151.281 30.4734 151.108 31.0534 150.761 31.5201C150.414 31.9867 149.921 32.3401 149.281 32.5801C148.641 32.8201 147.881 32.9401 147.001 32.9401C146.254 32.9401 145.608 32.8801 145.061 32.7601C144.528 32.6401 144.054 32.4734 143.641 32.2601V30.6601C144.068 30.8734 144.581 31.0734 145.181 31.2601C145.794 31.4334 146.414 31.5201 147.041 31.5201C147.934 31.5201 148.581 31.3801 148.981 31.1001C149.381 30.8067 149.581 30.4201 149.581 29.9401C149.581 29.6734 149.508 29.4334 149.361 29.2201C149.214 29.0067 148.948 28.7934 148.561 28.5801C148.188 28.3667 147.648 28.1267 146.941 27.8601C146.248 27.5934 145.654 27.3267 145.161 27.0601C144.668 26.7934 144.288 26.4734 144.021 26.1001C143.754 25.7267 143.621 25.2467 143.621 24.6601C143.621 23.7534 143.988 23.0534 144.721 22.5601C145.468 22.0667 146.441 21.8201 147.641 21.8201C148.294 21.8201 148.901 21.8867 149.461 22.0201C150.034 22.1401 150.568 22.3134 151.061 22.5401L150.461 23.9401C150.168 23.8067 149.854 23.6934 149.521 23.6001C149.201 23.4934 148.874 23.4134 148.541 23.3601C148.208 23.2934 147.868 23.2601 147.521 23.2601C146.801 23.2601 146.248 23.3801 145.861 23.6201C145.488 23.8467 145.301 24.1601 145.301 24.5601C145.301 24.8534 145.388 25.1067 145.561 25.3201C145.734 25.5201 146.021 25.7201 146.421 25.9201C146.834 26.1067 147.381 26.3334 148.061 26.6001C148.741 26.8534 149.321 27.1134 149.801 27.3801C150.281 27.6467 150.648 27.9734 150.901 28.3601C151.154 28.7334 151.281 29.2067 151.281 29.7801Z" fill="#F6851F"/>
<path d="M63.26 32.74H61.46V20.04H57V18.46H67.7V20.04H63.26V32.74Z" fill="#563D99"/>
<g clip-path="url(#clip0_308_49)">
<path d="M41.2152 19.9154C41.6746 24.4375 42.1396 28.9059 42.5684 33.3778C42.6198 33.9132 42.826 33.9883 43.2783 33.928C45.0553 33.6914 46.8331 33.4607 48.6112 33.232C49.5099 30.654 50 27.8844 50 25C50 22.6405 49.6728 20.3576 49.0619 18.1936C46.6823 18.5339 44.2984 18.849 41.9095 19.1144C41.2957 19.1827 41.0601 19.3676 41.2152 19.9154Z" fill="#F7951A"/>
<path d="M39.5955 5.52029C39.7454 6.07187 39.7378 6.66622 39.801 7.24154C40.1458 10.3821 40.5008 13.5215 40.8253 16.6641C40.8728 17.1244 41.0156 17.249 41.4707 17.1862C43.6483 16.8858 45.8279 16.5979 48.011 16.3404C48.1733 16.3212 48.3088 16.2914 48.4245 16.2503C46.7029 11.6433 43.6615 7.6811 39.76 4.82227C39.5623 4.92854 39.4882 5.12541 39.5955 5.52029Z" fill="#D9C427"/>
<path d="M40.2393 30.2754C40.1245 29.4153 40.0685 28.5473 39.9858 27.6828C39.8012 25.752 39.6107 23.8219 39.4316 21.8906C39.3784 21.3169 39.2241 21.0757 38.5233 21.1783C35.6856 21.5936 32.8358 21.9288 29.9869 22.2632C29.4828 22.3224 29.3831 22.4773 29.4546 22.977C29.8487 25.7298 30.2222 28.4861 30.5464 31.2479C30.6134 31.8187 30.7278 32.0781 31.0949 31.947C34.1728 31.556 37.0176 31.1858 39.8655 30.8424C40.2878 30.7914 40.2858 30.624 40.2393 30.2754Z" fill="#FCCA09"/>
<path d="M16.8432 21.8132C16.7468 21.0812 16.4846 20.963 15.8592 21.0431C14.3368 21.2383 12.8132 21.4455 11.2834 21.553C10.5799 21.6025 10.5024 21.8604 10.5796 22.473C10.8258 24.4273 11.0103 26.3893 11.2259 28.3475C11.492 30.7632 11.7786 33.1767 12.0259 35.5942C12.0845 36.1671 12.2338 36.4759 12.7539 36.2466C14.5014 36.0508 16.1396 35.8629 17.779 35.6864C18.1934 35.6418 18.3657 35.5249 18.308 35.0285C17.7959 30.6263 17.4224 26.209 16.8432 21.8132Z" fill="#83B472"/>
<path d="M42.9257 36.8267C43.115 38.491 43.3067 40.1551 43.4961 41.8195C45.2242 39.9202 46.6629 37.7533 47.7446 35.3889C46.3484 35.5632 44.9499 35.7212 43.5502 35.8631C42.8501 35.9341 42.8557 36.3225 42.9257 36.8267Z" fill="#F68D1C"/>
<path d="M7.72582 9.37441C9.42224 9.15999 11.1229 8.9786 12.8231 8.7952C13.3456 8.73885 13.7629 8.63004 13.5276 8.07797C13.3258 6.39297 13.1235 4.74136 12.9271 3.10474C10.6265 4.37597 8.54799 5.99902 6.76343 7.90162C6.78947 8.13274 6.81713 8.36364 6.84275 8.59478C6.91492 9.24588 7.08485 9.45541 7.72582 9.37441Z" fill="#594C95"/>
<path d="M20.2671 18.0661C20.1654 17.2502 20.0526 16.3612 19.9443 15.4717C19.7522 13.8934 19.5753 12.313 19.3612 10.7378C19.3213 10.4442 19.3683 10.0151 18.79 10.0853C15.8062 10.4471 12.8193 10.7829 9.83302 11.124C9.48909 11.1632 9.33083 11.2667 9.39674 11.6786C9.52441 12.4768 9.56967 13.2878 9.6599 14.0924C9.8436 15.73 10.0388 17.3665 10.22 19.0044C10.2802 19.549 10.4964 19.7043 11.0754 19.5897C11.9226 19.4221 12.7987 19.4033 13.6612 19.3094C15.7014 19.0875 17.7403 18.8533 19.7812 18.6384C20.1118 18.6036 20.3629 18.5535 20.2671 18.0661Z" fill="#60698F"/>
<path d="M17.314 47.3426C16.3642 47.453 15.4146 47.5654 14.4648 47.6763C15.6578 48.2315 16.9011 48.6966 18.1873 49.0601C18.1421 48.6695 18.0953 48.2791 18.0519 47.8884C17.9874 47.3068 17.7182 47.3193 17.314 47.3426Z" fill="#FAB80F"/>
<path d="M26.0667 42.9724C25.9096 43.0293 25.7206 42.9931 25.5479 43.0133C23.7664 43.2219 21.9847 43.4303 20.2041 43.647C19.9008 43.6839 19.5735 43.6604 19.6381 44.1793C19.8613 45.9703 20.0766 47.7623 20.2883 49.5547C21.8144 49.8457 23.3891 50 25 50C26.0492 50 27.083 49.9344 28.0983 49.8089C27.8357 47.8185 27.5789 45.8369 27.3689 43.8515C27.2652 42.8716 26.9184 42.6634 26.0667 42.9724Z" fill="#F9B011"/>
<path d="M10.1349 36.6162C10.0214 35.7833 9.92301 34.948 9.83255 34.1122C9.63908 32.3248 9.46264 30.5355 9.2592 28.7492C9.2202 28.4067 9.26222 27.9715 8.64473 28.0482C6.05562 28.3695 3.46371 28.6694 0.870407 28.9553C0.623686 28.9824 0.453035 29.0491 0.345337 29.1528C0.873686 32.3127 1.99341 35.2719 3.58896 37.9121C5.62322 37.6936 7.65673 37.4679 9.69243 37.2639C10.1501 37.2181 10.1853 36.9853 10.1349 36.6162Z" fill="#6B9486"/>
<path d="M8.02539 40.5508C8.38558 39.6022 8.34502 39.4917 7.02346 39.5442C6.3276 39.625 5.59805 39.7101 4.84949 39.7973C5.83463 41.1365 6.94893 42.3748 8.176 43.4919C8.17102 43.4241 8.16407 43.3564 8.15939 43.2886C8.09646 42.3774 7.67984 41.4609 8.02539 40.5508Z" fill="#6EA384"/>
<path d="M40.6987 34.6261C40.552 32.7384 40.6032 32.7355 38.7524 33.0335C38.5813 33.061 38.4054 33.0577 38.233 33.0785C36.1379 33.3314 34.0442 33.5967 31.9473 33.8336C31.349 33.9013 31.2016 34.1457 31.3081 34.74C31.4709 35.6484 31.5253 36.5764 31.6224 37.4964C31.6466 37.7256 31.6404 37.9367 31.5242 38.1645C31.0008 39.1903 31.1322 39.9833 31.9956 40.6633C32.4752 41.0412 32.7378 41.461 32.6594 42.0662C32.5653 42.7929 32.8893 43.0186 33.5812 42.8548C34.4177 42.6114 35.4428 42.9753 36.1249 42.1023C36.205 41.9998 36.449 42.0124 36.6193 41.9956C37.8875 41.8706 39.156 41.7488 40.4249 41.6317C41.4694 41.5352 41.4648 41.5043 41.339 40.4894C41.0971 38.5383 40.851 36.5855 40.6987 34.6261Z" fill="#F89E17"/>
<path d="M28.0074 31.4663C25.585 31.7305 23.1624 31.9929 20.7383 32.2395C20.2437 32.2898 20.0251 32.4572 20.0961 33.0052C20.2822 34.4434 20.4475 35.8857 20.5635 37.3309C20.6309 38.1701 20.8414 38.9841 20.3533 39.8544C19.8785 40.7012 20.4876 41.5475 21.3223 41.4844C23.77 41.1905 26.2147 40.8659 28.6674 40.6228C29.3442 40.5558 29.4067 40.283 29.3094 39.7381C29.209 39.1753 28.9763 38.5618 29.3009 38.0452C29.5795 37.602 29.5357 37.1819 29.5436 36.7196C29.573 34.9963 28.8492 33.4207 28.6053 31.7527C28.5501 31.375 28.2804 31.4365 28.0074 31.4663Z" fill="#FBC10C"/>
<path d="M20.5166 30.2923C22.8668 30.003 25.2169 29.7088 27.5721 29.4667C28.1381 29.4085 28.3879 29.2838 28.1825 28.8334C28.0971 28.1543 28.0289 27.61 27.9601 27.0658C27.6774 24.8311 27.3862 22.5974 27.1193 20.3608C27.0717 19.9621 26.9845 19.8454 26.5336 19.9017C24.1552 20.1984 21.7715 20.4554 19.3863 20.6931C18.8775 20.7438 18.7095 20.8354 18.7878 21.4221C19.1508 24.1409 19.4684 26.8665 19.7426 29.5958C19.8004 30.1706 19.9582 30.3611 20.5166 30.2923Z" fill="#94B763"/>
<path d="M15.9554 8.4223C17.8809 8.17098 19.8083 7.93316 21.7373 7.71026C22.2188 7.65458 22.2949 7.39386 22.2356 7.13681C22.0416 5.44174 21.8595 3.88867 21.6871 2.33451C21.6101 1.64007 21.5341 0.945511 21.4583 0.250977C19.137 0.580186 16.9184 1.2276 14.848 2.14877C15.0826 4.0774 15.3176 6.00595 15.557 7.934C15.586 8.1676 15.5039 8.48123 15.9554 8.4223Z" fill="#5D5A92"/>
<path d="M29.0547 16.4134C29.1661 17.3431 29.4022 18.2571 29.059 19.2219C28.796 19.961 29.2337 20.3413 30.01 20.23C30.6109 20.1438 31.216 20.0877 31.8182 20.0109C34.1118 19.7184 36.4046 19.4204 38.6986 19.132C38.9782 19.0968 39.0985 19.0127 39.0605 18.693C38.7772 16.3095 38.5053 13.9246 38.25 11.538C38.213 11.1922 38.0748 11.0757 37.7556 11.1209C36.9253 11.2343 36.0948 11.3463 35.2648 11.4614C33.2899 11.7353 31.3165 12.0194 29.3397 12.2779C28.9526 12.3284 28.7317 12.4536 28.8303 12.8679C29.1086 14.0371 28.9134 15.2345 29.0547 16.4134Z" fill="#EBC718"/>
<path d="M7.41358 12.108C7.37444 11.8205 7.49109 11.4814 6.96286 11.4497C5.57195 11.3661 5.20902 11.1227 5.01546 9.97852C4.22514 11.0283 3.51648 12.1428 2.89697 13.3119C4.28772 13.1468 5.67837 12.9813 7.06974 12.8216C7.57825 12.7632 7.45541 12.4153 7.41358 12.108Z" fill="#563D98"/>
<path d="M24.332 7.94393C24.4062 8.60242 23.7494 9.44705 23.0992 9.55198C22.6989 9.61658 22.2964 9.71228 21.8946 9.7134C21.2587 9.71519 21.3305 10.1042 21.336 10.534C21.3427 11.063 21.6027 11.1575 22.059 11.1031C24.5913 10.801 27.1247 10.5079 29.6589 10.222C30.0736 10.1753 30.3269 10.0334 30.2476 9.56237C29.8596 6.48639 29.4708 3.41053 29.0857 0.334163C27.756 0.115535 26.3916 0 25 0C24.4704 0 23.9453 0.0184186 23.4239 0.0508837C23.4271 0.165744 23.4389 0.291535 23.4566 0.429791C23.7769 2.93091 24.0492 5.43814 24.332 7.94393Z" fill="#B7BE45"/>
<path d="M32.1746 9.10217C32.2402 9.66787 32.4115 9.8701 33.0494 9.75433C34.4438 9.50124 35.8577 9.3535 37.2657 9.17961C37.7519 9.11954 38.0371 8.94152 37.9291 8.55773C37.7107 6.74489 37.4954 4.97396 37.2846 3.22315C35.3834 2.14833 33.3279 1.31492 31.1589 0.765381C31.1959 1.04287 31.2336 1.32031 31.2678 1.59819C31.5758 4.09882 31.8844 6.5994 32.1746 9.10217Z" fill="#C8C136"/>
<path d="M17.6227 43.9902C17.51 43.4335 17.3695 42.8825 17.8493 42.4495C18.4533 41.9043 18.458 41.2404 18.309 40.5358C18.1927 39.9859 18.0971 39.4731 18.5614 38.9989C18.9025 38.6506 18.627 38.2224 18.5502 37.8401C18.4821 37.5009 18.1787 37.6239 17.975 37.6521C15.4308 38.0055 12.8152 38.0092 10.4347 39.1799C10.2879 39.2521 10.1345 39.3296 10.1995 39.4719C10.538 40.2124 9.90835 40.843 9.99333 41.5536C10.1425 42.8012 10.2671 44.0517 10.4081 45.3003C10.7348 45.5355 11.0673 45.763 11.4055 45.9826C13.1743 45.7944 14.863 45.6112 16.5506 45.4376C17.7426 45.315 17.8637 45.1812 17.6227 43.9902Z" fill="#72B181"/>
<path d="M8.10954 17.952C7.9344 17.1028 7.84575 16.2313 7.78482 15.3649C7.74933 14.8601 7.5691 14.7359 7.08415 14.7935C5.36059 14.9982 3.63654 15.199 1.91219 15.3972C1.3347 16.784 0.8791 18.234 0.557495 19.7339C2.77359 19.4716 4.98847 19.1985 7.2078 18.9677C7.89801 18.8959 8.27943 18.7755 8.10954 17.952Z" fill="#64788C"/>
<path d="M0.672767 26.9558C3.25867 26.6713 5.90602 26.38 8.55335 26.0886C9.10867 26.0275 8.96267 25.6232 8.92344 25.296C8.77523 24.06 8.54067 22.8291 8.48184 21.5895C8.446 20.8342 8.09895 20.8263 7.55574 20.8983C6.66642 21.0161 5.77514 21.1195 4.88451 21.2274C3.33265 21.4153 1.78081 21.6034 0.228605 21.7883C0.220279 21.7893 0.212512 21.7905 0.204279 21.7915C0.0696744 22.842 0 23.9129 0 25.0001C0 25.6398 0.0242791 26.2738 0.0714884 26.9015C0.191186 27.0042 0.37886 27.0259 0.672767 26.9558Z" fill="#678689"/>
<path d="M34.7454 44.7489C34.1716 44.8269 33.595 44.8926 33.0174 44.9327C31.3563 45.048 30.8765 44.6805 30.7539 43.0355C30.6994 42.3034 30.2721 42.5032 29.8602 42.4834C29.3161 42.4572 29.2536 42.7117 29.3153 43.1822C29.5901 45.2798 29.8506 47.3795 30.0861 49.4817C32.034 49.0791 33.8985 48.449 35.6519 47.6219C35.5731 46.8416 35.4982 46.0609 35.4309 45.2795C35.3911 44.8173 35.1725 44.6908 34.7454 44.7489Z" fill="#F8A714"/>
<path d="M22.2395 17.8239C22.2781 18.1324 22.348 18.3682 22.7751 18.3154C24.0954 18.152 25.4205 18.0278 26.7435 17.8863C27.0404 17.8545 27.2339 17.7447 27.1659 17.3848C26.9239 16.1049 26.9861 14.8029 26.9002 13.5115C26.8593 12.8974 26.7355 12.3995 26.0423 12.6621C24.7264 12.7992 23.5196 12.9213 22.3137 13.0528C21.9436 13.0932 21.6495 13.1823 21.7211 13.6915C21.9144 15.0661 22.0672 16.4464 22.2395 17.8239Z" fill="#A5BA54"/>
<path d="M41.0114 43.5598C40.0392 43.6937 39.0631 43.8295 38.0844 43.8756C37.4818 43.904 37.2075 44.0695 37.3325 44.5114C37.4151 45.2398 37.4952 45.9346 37.5726 46.6117C39.0171 45.7695 40.3691 44.7865 41.6107 43.6817C41.4964 43.5414 41.3093 43.5188 41.0114 43.5598Z" fill="#F5851F"/>
</g>
<defs>
<clipPath id="clip0_308_49">
<rect width="50" height="50" fill="white"/>
</clipPath>
</defs>
</svg>
